<svg xmlns="http://www.w3.org/2000/svg" viewBox="0 0 130 47" class="logo__svg"><path d="M15.38 18.2c-.08-2.9-2-5.2-5.6-5.2-3.34 0-5.37 2.58-5.54 5.2h11.14zm4.16 1.96c0 .5-.05 1.02-.1 1.27H4.12c.1 3.65 2.72 6.2 6.16 6.2 3.03 0 4.67-1.55 5.5-3.57l3.45 1.2c-1.3 3.33-4.45 5.88-8.94 5.88-5.5 0-10.3-4-10.3-10.9C0 13.84 4.6 9.5 9.7 9.5c6.27 0 9.8 4.32 9.8 10.68zm50.83-1.04c0-3.5-2.34-5.73-5.48-5.73-3.2 0-5.6 2.2-5.6 5.7 0 3.1 2.3 5.2 5.5 7.9 3.1-2.6 5.5-4.9 5.5-7.98zm-2.8 10.68c2.57 2.23 5.13 4.6 5.13 8.52 0 4.64-3.35 8-7.96 8-4.6 0-7.92-3.36-7.92-8 0-2.28.9-4.1 2.15-5.6l2.7 2.32c-.8 1-1.3 2.05-1.3 3.28 0 2.8 1.87 4.46 4.37 4.46s4.4-1.66 4.4-4.46c0-2.5-1.86-4.07-4.36-6.22l-2.46-2.12-.27-.23c-3.27-2.82-6.55-5.78-6.55-10.63 0-2.7.97-5.14 2.72-6.9 1.72-1.72 4.1-2.67 6.67-2.67 5.4 0 9.3 4.02 9.3 9.57 0 5.02-3.9 8.4-6.7 10.68zM48.9 0c-1.34 0-2.43 1.1-2.43 2.48 0 1.35 1.1 2.45 2.44 2.45 1.4 0 2.5-1.1 2.5-2.45 0-1.4-1.1-2.48-2.5-2.48zm-1.93 30.5h3.93V10.2h-3.93v20.3zm78.8-9.68l-6.2.93c-1.7.25-2.97 1.22-2.97 3.04 0 1.5 1.27 2.9 3.3 2.9 3.25 0 5.87-1.6 5.87-6v-.98zm4.23 9.63h-3.9c-.07-.5-.2-1.26-.2-2.74-.9 1.5-2.92 3.4-6.55 3.4-4.14 0-6.8-2.9-6.8-6.1 0-3.6 2.66-5.6 6.17-6.1l5.5-.8c1.22-.14 1.55-.8 1.55-1.5 0-2-1.3-3.62-4.4-3.62-2.78 0-4.34 1.74-4.6 4.1l-3.8-.9c.42-3.9 3.93-6.6 8.32-6.6 6 0 8.4 3.48 8.4 7.45v10.2c0 1.76.12 2.8.2 3.3zM101.6 9.57c-2.6 0-5.2.93-6.82 3.85-1.1-2.63-3.56-3.85-6.1-3.85-2.36 0-4.9 1.05-6.17 3.3v-2.7h-3.8V30.5h4V18.25c0-3.05 1.9-5.16 4.77-5.16 3.05 0 4.3 2 4.3 4.6v12.8h4V18.2c0-2.92 1.9-5.12 4.7-5.12 3 0 4.3 2 4.3 4.65V30.5h3.93V17.3c0-5.32-3.46-7.73-7-7.73zM41.33 17.6v12.9h-3.97V18.3c0-2.83-1.2-5.12-4.74-5.12-3.13 0-4.74 2.5-4.74 5.6V30.5h-4V10.17h3.9v2.92c1.5-2.6 3.9-3.5 6.27-3.5 4.86 0 7.27 3.5 7.27 8z" class="logo__path"></path></svg>
